# xmcd
#
# Track frame offsets:
#	150
#	20100
#	36157
#	56962
#	81945
#	101325
#	126462
#	146925
#	171750
#	191170
#	208917
#	229845
#	251025
#	280605
#
# Disc length: 3924 seconds
#
# Revision: 1
# Processed by: cddbd v1.4PL0 Copyright (c) Steve Scherf et al.
# Submitted via: audiograbber 1.81.03
#
DISCID=db0f520e
DTITLE=Mississippi Heat - Thunder In My Heart
DYEAR=1995
DGENRE=Blues
TTITLE0=Thunder In My Heart
TTITLE1=I Luv U So
TTITLE2=Hometown Boy
TTITLE3=Loan Me Train Fare
TTITLE4=Nothin' But Trouble
TTITLE5=You Gave Nothing
TTITLE6=Natalie
TTITLE7=Gonna Hit That Dusty Road
TTITLE8=Don't Dare Call
TTITLE9=Baby Please Stop Drinkin'
TTITLE10=Somebody's Always Talking
TTITLE11=Better Day
TTITLE12=Brand New Woman
TTITLE13=Steamrollin'
EXTD=
EXTT0=
EXTT1=
EXTT2=
EXTT3=
EXTT4=
EXTT5=
EXTT6=
EXTT7=
EXTT8=
EXTT9=
EXTT10=
EXTT11=
EXTT12=
EXTT13=
PLAYORDER=
